<svg width="100" height="41" viewBox="0 0 100 41" fill="none" xmlns="http://www.w3.org/2000/svg">
<path fill-rule="evenodd" clip-rule="evenodd" d="M82.5486 40.9771C87.1311 40.9771 89.2879 39.2188 91.1718 33.8972L99.425 10.6453H94.6445L89.11 28.6344H89.015L83.4805 10.6697H78.5646L86.5287 32.7987L86.1022 34.1469C85.799 36.0758 84.0768 37.4463 82.1383 37.3062C81.7704 37.3062 81.0529 37.2676 80.7598 37.229V40.8837C81.352 40.9649 81.9523 41.0035 82.5486 40.9997V40.9771ZM66.6223 29.3329C64.1158 29.3329 62.527 28.1147 62.527 26.2711C62.527 24.3605 64.0593 23.2458 66.9943 23.0712L72.2175 22.7382V24.458C72.1023 27.2863 69.7211 29.4912 66.9054 29.3755L66.6223 29.3552V29.3329ZM65.3631 32.9429C68.2051 33.018 70.8672 31.5298 72.2963 29.0588H72.3933V32.7114H76.7413V17.577C76.7413 13.1873 73.2464 10.359 67.8655 10.359C62.8768 10.359 59.1837 13.2259 59.0503 17.1669H63.2851C63.7904 15.1629 65.6865 13.8411 67.7321 14.0644C70.6065 14.0644 72.2175 15.4106 72.2175 17.8876V19.5647L66.3535 19.916C60.8978 20.247 57.9446 22.4905 57.9446 26.3929C57.9406 30.3481 60.9888 32.9612 65.359 32.9612L65.3631 32.9429ZM40.1526 6.27591H45.5719C49.651 6.27591 51.9796 8.46059 51.9796 12.3041C51.9796 16.1476 49.651 18.3506 45.5537 18.3506H40.1526V6.27591ZM35.4549 2.29635V32.7074H40.1526V22.3403H46.6614C51.9594 22.6266 56.4852 18.5435 56.7723 13.2198C56.7884 12.9173 56.7884 12.6168 56.7763 12.3143C57.0289 7.04948 52.9822 2.57859 47.7408 2.32479C47.4315 2.31058 47.1263 2.31259 46.817 2.32681L35.4549 2.29635ZM19.8541 7.97126C17.1535 7.81492 14.8431 9.51232 13.5636 9.51232C12.28 9.51232 10.3011 8.05046 8.16456 8.09106C5.33465 8.16416 2.75338 9.73771 1.38694 12.227C-1.52585 17.2603 0.628877 24.7118 3.44463 28.805C4.82118 30.8354 6.47669 33.0606 8.64763 32.9815C10.7054 32.9043 11.522 31.6353 14.0103 31.6353C16.4966 31.6353 17.2324 32.9815 19.4094 32.9429C21.6592 32.9023 23.0802 30.9125 24.4628 28.8822C25.4371 27.4426 26.1951 25.867 26.7126 24.2102C24.0585 23.0448 22.3383 20.4195 22.3262 17.51C22.3666 14.9436 23.7048 12.5762 25.8778 11.23C24.4911 9.25245 22.2676 8.03826 19.8582 7.95298L19.8541 7.97126ZM18.1682 5.28507C16.9857 6.78146 15.1766 7.64032 13.2745 7.60581C13.1533 5.74192 13.7839 3.90848 15.025 2.51564C16.2581 1.07813 17.9944 0.176643 19.8763 0C20.0097 1.91668 19.3973 3.809 18.1642 5.279L18.1682 5.28507Z" fill="#0B0B09"/>
</svg>
