<svg width="60" height="46" viewBox="0 0 60 46" fill="none" xmlns="http://www.w3.org/2000/svg">
<path fill-rule="evenodd" clip-rule="evenodd" d="M10.7457 45.8623V42.8086C10.8166 41.8113 10.0645 40.9441 9.06711 40.8755L8.83115 40.8744C8.14648 40.829 7.49087 41.1615 7.12006 41.7392C6.78412 41.1789 6.16687 40.8465 5.51242 40.8744C4.94283 40.8465 4.40231 41.1196 4.08845 41.5962V40.9964H3.02832V45.8623H4.0966V43.1655C4.01174 42.5424 4.44648 41.9659 5.06954 41.8799L5.28923 41.8705C5.98553 41.8705 6.34588 42.3297 6.34588 43.1504V45.8577H7.41415V43.1608C7.33278 42.532 7.77683 41.9566 8.40686 41.8752L8.6068 41.8659C9.32866 41.8659 9.67506 42.3251 9.67506 43.1446V45.853L10.7457 45.8623ZM26.5651 40.9964H24.8354V39.5201H23.7671V40.9964H22.7802V41.9635H23.7671V44.1838C23.7671 45.3125 24.2042 45.9844 25.455 45.9844C25.9234 45.9867 26.3826 45.8553 26.7778 45.6078L26.4733 44.7022C26.1896 44.8719 25.8665 44.9649 25.5375 44.9766C25.0086 44.9766 24.84 44.6511 24.84 44.164V41.9659H26.5697L26.5651 40.9964ZM35.5901 40.879C35.0636 40.8651 34.5753 41.1371 34.3092 41.5916V41.0011H33.2653V45.867H34.3231V43.1399C34.3231 42.3355 34.6718 41.888 35.36 41.888C35.5878 41.8822 35.811 41.9205 36.0237 42.0042L36.3492 41.0057C36.1063 40.9209 35.8529 40.8755 35.5948 40.8744L35.5901 40.879ZM21.9375 41.387C21.3377 41.0324 20.6507 40.8558 19.9532 40.879C18.7199 40.879 17.9283 41.4695 17.9283 42.4366C17.9283 43.2306 18.5188 43.7142 19.608 43.8711L20.1078 43.9432C20.689 44.0245 20.9622 44.1756 20.9622 44.4523C20.9622 44.8289 20.5751 45.0428 19.8521 45.0428C19.2697 45.0602 18.7013 44.8789 18.2328 44.5337L17.7353 45.3578C18.3514 45.7879 19.0895 46.0099 19.8416 45.989C21.247 45.989 22.0607 45.3276 22.0607 44.4C22.0607 43.5456 21.4202 43.0969 20.3612 42.9446L19.8637 42.8737C19.4046 42.8133 19.0372 42.7215 19.0372 42.396C19.0372 42.0391 19.3871 41.8252 19.9683 41.8252C20.5019 41.8345 21.0215 41.9775 21.4841 42.2437L21.9375 41.387ZM50.2925 40.8836C49.7682 40.8697 49.2777 41.1417 49.0138 41.5962V41.0057H47.9676V45.8716H49.0289V43.1446C49.0289 42.3402 49.3753 41.8926 50.0681 41.8926C50.2925 41.888 50.5168 41.9275 50.7284 42.0089L51.0562 41.0104C50.8132 40.9243 50.5587 40.8802 50.3006 40.879L50.2925 40.8836ZM36.6538 43.4398C36.5956 44.7964 37.65 45.9414 39.0065 45.9983L39.2495 45.996C39.883 46.0285 40.5084 45.8205 40.9966 45.4148L40.4886 44.5592C40.1224 44.8382 39.6772 44.9928 39.2169 44.9975C38.4148 45.0068 37.7557 44.3639 37.7476 43.5619L37.7499 43.441C37.6941 42.6389 38.2974 41.9426 39.0983 41.8868L39.2169 41.8822C39.6772 41.888 40.1224 42.0414 40.4886 42.3204L40.9966 41.4649C40.5084 41.0603 39.883 40.8511 39.2495 40.8836C37.8941 40.8058 36.7316 41.8427 36.6549 43.1969L36.6538 43.441V43.4398ZM46.5658 43.4398V41.0057H45.5091V41.5962C45.1418 41.1243 44.5699 40.8581 43.9724 40.8836C42.6228 40.886 41.5313 41.9798 41.5336 43.3282L41.5371 43.441C41.4743 44.7882 42.5135 45.9321 43.8585 45.996L43.9724 45.9983C44.5699 46.0239 45.1418 45.7577 45.5091 45.2846V45.8751H46.5658V43.4398ZM42.6286 43.4398C42.5728 42.6343 43.1808 41.9391 43.9875 41.8845L44.1037 41.8798C44.9105 41.8752 45.5696 42.525 45.573 43.3306L45.5707 43.4398C45.6242 44.2431 45.0174 44.9394 44.2142 44.9928L44.1037 44.9963C43.297 45.0079 42.6356 44.3628 42.624 43.5561L42.6286 43.4398ZM29.8536 40.879C28.5412 40.8488 27.4532 41.8903 27.4229 43.2027L27.4299 43.4352C27.3404 44.7592 28.3424 45.903 29.6641 45.989L29.9245 45.9937C30.6498 46.0193 31.3589 45.7775 31.918 45.3125L31.4008 44.529C30.9962 44.851 30.4999 45.0288 29.9838 45.0393C29.2561 45.0986 28.6133 44.5709 28.5284 43.8455H32.1436C32.154 43.7142 32.1633 43.5805 32.1633 43.4398C32.2865 42.1553 31.3473 41.0162 30.064 40.893L29.8536 40.8813V40.879ZM29.8315 41.8252C30.4987 41.8136 31.0486 42.3425 31.0648 43.0074H28.54C28.5772 42.3286 29.1515 41.8043 29.8303 41.8252H29.8315ZM56.3929 43.4352V39.0482H55.3351V41.5916C54.9689 41.1208 54.397 40.8534 53.8007 40.8802C52.4499 40.8825 51.3596 41.9775 51.3619 43.3259L51.3642 43.4387C51.3015 44.7836 52.3418 45.9286 53.6868 45.9913L53.8007 45.9937C54.3982 46.0204 54.9689 45.753 55.3351 45.2811V45.8716H56.3952L56.3929 43.4352ZM52.4511 43.4352C52.3988 42.6308 53.0056 41.9345 53.81 41.8799L53.9274 41.8775C54.7341 41.8706 55.3932 42.5203 55.399 43.3259L55.3955 43.4352C55.4502 44.2384 54.8422 44.9359 54.039 44.9905L53.9274 44.9928C53.123 45.0044 52.4604 44.3593 52.4488 43.5526L52.4511 43.4352ZM16.7019 43.4352V41.0011H15.6418V41.5916C15.2756 41.1208 14.7026 40.8534 14.1062 40.8802C12.7567 40.8825 11.6663 41.9775 11.6675 43.3259L11.6698 43.4387C11.607 44.7836 12.6474 45.9286 13.9923 45.9913L14.1062 45.9937C14.7026 46.0204 15.2756 45.753 15.6418 45.2811V45.8716H16.7019V43.4352ZM12.759 43.4352C12.7055 42.6308 13.3134 41.9345 14.1178 41.8799L14.2353 41.8775C15.042 41.8706 15.7011 42.5203 15.7069 43.3259L15.7034 43.4352C15.7569 44.2384 15.1501 44.9359 14.3469 44.9905L14.2353 44.9928C13.4309 45.0044 12.7671 44.3593 12.7566 43.5526L12.759 43.4352Z" fill="#1C1B19"/>
<path fill-rule="evenodd" clip-rule="evenodd" d="M21.6226 32.7444H37.657V3.92676H21.6226V32.7444Z" fill="#E05A29"/>
<path fill-rule="evenodd" clip-rule="evenodd" d="M22.651 18.3326C22.644 12.7077 25.2246 7.39188 29.6499 3.91856C26.4231 1.37518 22.4336 -0.00577537 18.3245 1.81551e-05C8.20323 1.81551e-05 0 8.20559 0 18.3268C0 28.448 8.20323 36.6524 18.3245 36.6536C22.4336 36.6594 26.4231 35.2773 29.6499 32.7351C25.2269 29.2641 22.6463 23.9506 22.651 18.3268" fill="#D6232A"/>
<path fill-rule="evenodd" clip-rule="evenodd" d="M59.2844 18.3326C59.2844 28.4538 51.0812 36.6582 40.96 36.6594C36.8508 36.6652 32.8602 35.2843 29.6333 32.7409C34.0575 29.271 36.6392 23.9553 36.6334 18.3326C36.6404 12.7077 34.0586 7.39072 29.6333 3.91856C32.8602 1.37401 36.8508 -0.00577535 40.96 1.81703e-05C51.0812 1.81703e-05 59.2844 8.20558 59.2844 18.3268" fill="#EB9730"/>
</svg>
