  <svg
    width="58"
    height="41"
    viewBox="0 0 58 41"
    fill="none"
    xmlns="http://www.w3.org/2000/svg"
  >
    <path
      fill-rule="evenodd"
      clip-rule="evenodd"
      d="M46.8058 18.6417V36.7425C46.8058 37.3357 46.3137 37.8191 45.711 37.8191H4.27569C3.67226 37.8191 3.18094 37.3357 3.18094 36.7425V18.6417H46.8058ZM3.18094 11.4885C3.18094 10.8953 3.68245 10.393 4.27569 10.393H45.711C46.3042 10.393 46.8058 10.8953 46.8058 11.4885V14.9694H3.18094V11.4885ZM45.711 7.23027H11.1137V4.25825C11.1137 3.66428 11.605 3.18094 12.2084 3.18094H53.6605C54.2442 3.18094 54.7377 3.67302 54.7377 4.25825V29.5115C54.7377 30.1149 54.2552 30.6055 53.6605 30.6055H49.9867V11.4885C49.9867 9.1403 48.0687 7.23027 45.711 7.23027ZM53.6605 0H12.2084C9.85073 0 7.93343 1.91076 7.93343 4.25825V7.23027H4.27569C1.91873 7.23027 0 9.1403 0 11.4885V36.7425C0 39.09 1.91873 41 4.27569 41H45.711C48.0687 41 49.9867 39.09 49.9867 36.7425V33.7872H53.6605C56.0087 33.7872 57.9187 31.8684 57.9187 29.5115V4.25825C57.9187 1.91076 56.0087 0 53.6605 0Z"
      fill="black"
    />
    <path
      fill-rule="evenodd"
      clip-rule="evenodd"
      d="M34.1456 29.0922H40.546V25.4024H34.1456V29.0922ZM42.0972 22.311H32.5995C31.7413 22.311 31.0483 23.0047 31.0483 23.8571V30.6222C31.0483 30.8814 31.1116 31.1361 31.2332 31.353C31.5142 31.8611 32.0223 32.1683 32.5995 32.1683H42.0972C42.6686 32.1683 43.1767 31.8662 43.4577 31.353C43.5792 31.1361 43.6426 30.8814 43.6426 30.6222V23.8571C43.6426 23.0047 42.9496 22.311 42.0972 22.311Z"
      fill="black"
    />
  </svg>

