<svg width="99" height="32" viewBox="0 0 99 32" fill="none" xmlns="http://www.w3.org/2000/svg">
<path fill-rule="evenodd" clip-rule="evenodd" d="M29.0925 0.56576L20.7963 21.6377L17.4383 3.72147C17.1538 1.90478 15.5947 0.565744 13.7609 0.567701H0.194897L0 1.46626C2.7206 2.01048 5.36522 2.89337 7.8656 4.09928C8.92578 4.61218 9.64293 5.64191 9.75986 6.81845L16.1171 31.5238H24.5439L37.4609 0.56576H29.0828H29.0925ZM40.887 0.56576L34.2921 31.5238H42.2648L48.8598 0.56576H40.887ZM86.5974 8.92879L89.014 20.5532H82.4015L86.5974 8.92879ZM85.4164 0.56564C83.9294 0.554008 82.5847 1.45453 82.0215 2.83662L70.0614 31.5238H78.4278L80.0921 26.9018H90.3197L91.2941 31.5238H98.6667L92.2374 0.56564H85.4281H85.4164ZM51.0171 10.2345C50.9645 14.694 54.9753 17.1802 57.9979 18.6524C61.1025 20.1695 62.1431 21.1444 62.1353 22.5011C62.11 24.5781 59.6584 25.4943 57.3607 25.5315C54.5095 25.5941 51.6914 24.9187 49.1774 23.5738L47.7314 30.3571C50.5591 31.4612 53.5663 32.0191 56.5987 31.9995C64.9788 31.9995 70.4472 27.8474 70.4804 21.4107C70.5115 13.2414 59.2296 12.7971 59.3056 9.13627C59.3348 8.03021 60.3853 6.84781 62.6889 6.54829C65.388 6.28793 68.1008 6.76559 70.5486 7.93234L71.9517 1.37034C69.5663 0.469827 67.0387 0.00587291 64.4915 0C56.6104 0 51.0659 4.20893 51.0191 10.2326" fill="#2566AF"/>
</svg>
